# xmcd
#
# Track frame offsets: 
#        150
#        41543
#        58683
#        78285
#        103130
#        154500
#
# Disc length: 2716 seconds
#
# Revision: 1
# Processed by: cddbd v1.5.2PL0 Copyright (c) Steve Scherf et al.
# Submitted via: ExactAudioCopy v1.0b4
#
DISCID=400a9a06
DTITLE=Joki Feund Sextet - Jogi Jazz
DYEAR=1963
DGENRE=Jazz
TTITLE0=Caravan
TTITLE1=Aisha
TTITLE2=The Caribean Ringo
TTITLE3=Killer Joe
TTITLE4=HL 20
TTITLE5=Yogiana
EXTD=YEAR: 1963
EXTT0=
EXTT1=
EXTT2=
EXTT3=
EXTT4=
EXTT5=
PLAYORDER=
